# xmcd
#
# Track frame offsets:
#	150
#	17860
#	35609
#	53249
#	69932
#	86894
#	106457
#	122364
#	139604
#	158651
#	173658
#
# Disc length: 2558 seconds
#
# Revision: 1
# Processed by: cddbd v1.5.2PL0 Copyright (c) Steve Scherf et al.
# Submitted via: dBpowerAMP V4.0
#
DISCID=8909fc0b
DTITLE=Lonestar - Mountains
DYEAR=2006
DGENRE=Country
TTITLE0=Mountains
TTITLE1=Nothing To Prove
TTITLE2=Long Lost Smile
TTITLE3=Thought It Was You
TTITLE4=Hey God
TTITLE5=I Wanna Do It For You
TTITLE6=Cowboy Girl
TTITLE7=What She Had To
TTITLE8=One Of Those Nights
TTITLE9=Careful Where You Kiss Me
TTITLE10=Always In The Band
EXTD=
EXTT0=
EXTT1=
EXTT2=
EXTT3=
EXTT4=
EXTT5=
EXTT6=
EXTT7=
EXTT8=
EXTT9=
EXTT10=
PLAYORDER=
